<svg xmlns="http://www.w3.org/2000/svg" width="30" height="30" viewBox="0 0 30 30"><defs><style>.a{fill:#fff;}.b{fill:#424b54;}.c{fill:#ff5c5c;}</style></defs><g transform="translate(-3253 -8501)"><rect class="a" width="30" height="30" transform="translate(3253 8501)"/><g transform="translate(3256 8442.837)"><g transform="translate(0 64.163)"><path class="b" d="M6.274,81.045a4.839,4.839,0,0,0,3.55,1.563H20.9a4.1,4.1,0,0,0,4.1-4.1V68.26a4.1,4.1,0,0,0-4.1-4.1H9.824a4.811,4.811,0,0,0-3.55,1.563L.563,71.943a2.124,2.124,0,0,0,0,2.881ZM1.488,72.79,7.2,66.569a3.577,3.577,0,0,1,2.631-1.154H20.908a2.849,2.849,0,0,1,2.845,2.845V78.506a2.849,2.849,0,0,1-2.845,2.845H9.824A3.577,3.577,0,0,1,7.193,80.2L1.488,73.976A.868.868,0,0,1,1.488,72.79Z" transform="translate(0 -64.163)"/><path class="c" d="M.179,6.835a.629.629,0,0,0,.889,0L3.51,4.393,5.952,6.835a.627.627,0,1,0,.889-.884L4.394,3.509,6.835,1.068A.625.625,0,0,0,5.952.184L3.51,2.626,1.068.184a.625.625,0,1,0-.884.884L2.626,3.509.185,5.951A.627.627,0,0,0,.179,6.835Z" transform="translate(14.845 4.255) rotate(45)"/></g></g></g></svg>