<svg xmlns="http://www.w3.org/2000/svg" width="30" height="30" viewBox="0 0 30 30"><defs><style>.a{fill:#fff;}.b{fill:#424b54;}.b,.c{stroke:#fff;stroke-width:0.5px;}.c{fill:#ff5c5c;}</style></defs><g transform="translate(-134 -151)"><g transform="translate(134 151)"><path class="a" d="M0,0H30V30H0Z" transform="translate(0)"/></g><g transform="translate(137.913 154.913)"><path class="b" d="M18.962,14.234a9.193,9.193,0,1,0-15.366,0L0,19.479l4.115-.767.767,4.115L8.273,17.88a9.2,9.2,0,0,0,6.012,0l3.391,4.946.767-4.115,4.115.767ZM5.609,19.387l-.418-2.244-2.244.419,1.514-2.209a9.253,9.253,0,0,0,2.555,1.983ZM3.432,9.193a7.848,7.848,0,1,1,7.847,7.848A7.856,7.856,0,0,1,3.432,9.193Zm13.936,7.949-.418,2.244-1.407-2.051A9.253,9.253,0,0,0,18.1,15.352l1.514,2.209Zm0,0" transform="translate(0)"/><path class="c" d="M148.974,134.374l-2.187-2.187-.951.951,3.139,3.139,6.416-6.416-.951-.951Zm0,0" transform="translate(-139.334 -123.163)"/></g></g></svg>