<svg xmlns="http://www.w3.org/2000/svg" width="120" height="120" viewBox="0 0 120 120"><defs><style>.a{fill:#fff;}.b{fill:#fee8e8;}.c{fill:#424b54;stroke:#414141;stroke-width:0.5px;}.d{fill:#e31836;}</style></defs><g transform="translate(-3622 -7879)"><rect class="a" width="120" height="120" transform="translate(3622 7879)"/><g transform="translate(-2223 -2215)"><rect class="b" width="45" height="46" rx="10" transform="translate(5868 10117)"/><rect class="b" width="11" height="11" rx="2" transform="translate(5886.591 10180)"/><g transform="translate(5901.315 10140.333)"><path class="c" d="M38.327,18H36V13.821A1.824,1.824,0,0,0,34.179,12H32V10.391l-.33-.33s0,0,0,0L26.806,5.2,21.61,0H5.333V7.333H1.821A1.824,1.824,0,0,0,0,9.155V38.28H0A1.7,1.7,0,0,0,1.71,40H31.55a1.693,1.693,0,0,0,1.633-1.209L40,20.1v-.118A1.786,1.786,0,0,0,38.327,18Zm-4.148-4.667a.489.489,0,0,1,.488.488V18H32V13.333ZM22,2.277,29.724,10H22ZM6.667,1.333h14v10h10V18H8.487a1.711,1.711,0,0,0-.281.023,1.681,1.681,0,0,0-1.352,1.185l-.187.515V1.333ZM1.333,9.155a.489.489,0,0,1,.488-.488H5.333v14.69l-4,10.909Zm30.58,29.234a.377.377,0,0,1-.363.278H1.71a.368.368,0,0,1-.3-.148.361.361,0,0,1-.082-.272l4-10.981v0l2.773-7.6.017-.055a.377.377,0,0,1,.363-.278h29.84c.253,0,.318.364.335.546Z"/><path class="d" d="M15.667,16.333h6.667a.667.667,0,1,0,0-1.333H15.667a.667.667,0,0,0,0,1.333Z" transform="translate(-5 -5)"/><path class="d" d="M15.667,9.333h6.667a.667.667,0,1,0,0-1.333H15.667a.667.667,0,0,0,0,1.333Z" transform="translate(-5 -2.667)"/><path class="d" d="M15.667,23.333h16a.667.667,0,0,0,0-1.333h-16a.667.667,0,0,0,0,1.333Z" transform="translate(-5 -7.333)"/></g></g></g></svg>