<svg xmlns="http://www.w3.org/2000/svg" width="120" height="120" viewBox="0 0 120 120"><defs><style>.a{fill:#fff;}.b{fill:#fee8e8;}.c{fill:none;}.d{fill:#e31836;}.e{fill:#414141;}</style></defs><g transform="translate(-4046 -7889)"><rect class="a" width="120" height="120" transform="translate(4046 7889)"/><g transform="translate(-1812 -2025)"><rect class="b" width="53" height="51" transform="translate(5870 9932)"/><rect class="b" width="12" height="11" transform="translate(5941 10005)"/><g transform="translate(5958.5 9837.755)"><path class="c" d="M138.884,327.632h-.045a3.619,3.619,0,1,0,.045,0Zm-.011,4.723a1.1,1.1,0,0,1-.012-2.21h.012a1.1,1.1,0,0,1,0,2.21Z" transform="translate(-183.105 -176.834)"/><path class="c" d="M39.048,330.069a.076.076,0,0,0,.076.076h2.544a5.806,5.806,0,0,1,1.158-2.513H39.048Z" transform="translate(-101.083 -176.834)"/><path class="c" d="M74.755,327.632h-.045a3.619,3.619,0,1,0,.045,0Zm-.011,4.723a1.1,1.1,0,0,1-.012-2.21h.012a1.1,1.1,0,0,1,0,2.21Z" transform="translate(-128.424 -176.834)"/><path class="c" d="M431.839,220.2a.076.076,0,0,0,.076.076h7.127l-1.625-4.876h-5.578Z" transform="translate(-436.006 -81.138)"/><path class="c" d="M403.4,327.629h-.03a3.569,3.569,0,1,0,.03,0Zm0,4.724a1.105,1.105,0,0,1-.012-2.21h.012a1.105,1.105,0,0,1,0,2.21Z" transform="translate(-408.666 -176.831)"/><path class="c" d="M411.737,199.948a1.1,1.1,0,0,1,1.1-1.1H414.1V196.2a1.249,1.249,0,0,0-.368-.889l-.166-.166h-8.99a2.288,2.288,0,0,1-2.286-2.286v-5.9a1.1,1.1,0,0,1,1.1-1.1h5.946l-.838-2.514h-8.651a.076.076,0,0,0-.076.076h0v18.972h3.619a5.838,5.838,0,0,1,5.362,3.543h5.267a.076.076,0,0,0,.076-.076v-4.8h-1.257A1.1,1.1,0,0,1,411.737,199.948Z" transform="translate(-408.666 -53.798)"/><path class="d" d="M89.329,344.692h-.012a1.111,1.111,0,1,0,.012,0Z" transform="translate(-143.009 -191.38)"/><path class="d" d="M153.458,344.692h-.012a1.111,1.111,0,1,0,.012,0Z" transform="translate(-197.69 -191.38)"/><path class="d" d="M417.99,344.692h-.012a1.111,1.111,0,1,0,.012,0Z" transform="translate(-423.25 -191.38)"/><path class="d" d="M32.064,281.672a1.1,1.1,0,0,0,1.1,1.1H80.408a1.1,1.1,0,1,0,0-2.21H33.169A1.1,1.1,0,0,0,32.064,281.672Z" transform="translate(-95.128 -136.703)"/><rect class="d" width="23.277" height="2.357" rx="1.179" transform="translate(-79.5 129.638)"/><path class="e" d="M.589,205.5a.589.589,0,1,0,0,1.179H1.621a.589.589,0,1,0,0-1.179Z" transform="translate(-67.788 -72.695)"/><path class="e" d="M74.415,139.953l-1.486-1.486-2.993-8.979a1.1,1.1,0,0,0-.335-2.158H58.9v-4.8a2.288,2.288,0,0,0-2.286-2.286H2.286A2.288,2.288,0,0,0,0,122.531v6.3H2.21v-6.3a.076.076,0,0,1,.076-.076H56.611a.076.076,0,0,1,.076.076v26.057H54.249a1.1,1.1,0,1,0,0,2.21h3.7a5.8,5.8,0,0,0-1.158,2.513H29.266a5.8,5.8,0,0,0-1.158-2.513H49.525a1.1,1.1,0,1,0,0-2.21H2.286a.076.076,0,0,1-.076-.076V137.961H0v10.551A2.288,2.288,0,0,0,2.286,150.8H3.543v2.437a2.288,2.288,0,0,0,2.286,2.286H8.373a5.825,5.825,0,0,0,10.446,2.3,5.825,5.825,0,0,0,10.446-2.3H56.793a5.828,5.828,0,0,0,11.551-1.1c0-.025,0-.05,0-.075h4.8a2.288,2.288,0,0,0,2.286-2.286V142.4A3.443,3.443,0,0,0,74.415,139.953ZM8.373,153.311H5.829a.076.076,0,0,1-.076-.076V150.8H9.531A5.806,5.806,0,0,0,8.373,153.311Zm5.722,4.724a3.619,3.619,0,0,1-.023-7.237h.045a3.619,3.619,0,0,1-.023,7.237Zm9.448,0a3.619,3.619,0,0,1-.023-7.237h.045a3.619,3.619,0,0,1-.023,7.237Zm47.28-18.9H63.7a.076.076,0,0,1-.076-.076v-4.8H69.2Zm-8.308,18.9a3.619,3.619,0,0,1-.023-7.237h.03a3.619,3.619,0,0,1-.008,7.238Zm10.7-5.98a.076.076,0,0,1-.076.076H67.877a5.837,5.837,0,0,0-5.362-3.543H58.9V129.617h0a.076.076,0,0,1,.076-.076h8.651l.838,2.514H62.515a1.1,1.1,0,0,0-1.1,1.1v5.9A2.288,2.288,0,0,0,63.7,141.35h8.99l.166.166a1.249,1.249,0,0,1,.368.889v2.641H71.963a1.1,1.1,0,1,0,0,2.21H73.22Z" transform="translate(-67.788 0)"/><path class="d" d="M-65.578,221.357H-57.4a1.182,1.182,0,0,0,1.179-1.179h0A1.182,1.182,0,0,0-57.4,219h-20.92a1.182,1.182,0,0,0-1.179,1.179h0a1.182,1.182,0,0,0,1.179,1.179h12.744Z" transform="translate(0 -84.206)"/><path class="d" d="M.958,0a1.11,1.11,0,0,1,.958,1.215A1.11,1.11,0,0,1,.958,2.431,1.11,1.11,0,0,1,0,1.215,1.11,1.11,0,0,1,.958,0Z" transform="translate(-79.5 129.601)"/><ellipse class="d" cx="0.884" cy="1.215" rx="0.884" ry="1.215" transform="translate(-79.5 134.757)"/></g></g></g></svg>