<svg xmlns="http://www.w3.org/2000/svg" width="120" height="120" viewBox="0 0 120 120"><defs><style>.a{fill:#fff;}.b{fill:#fee8e8;}.c{fill:#414141;stroke:#414141;}.c,.d{stroke-width:0.5px;}.d{fill:#e31836;stroke:#e31836;}</style></defs><g transform="translate(-4110 -7800)"><rect class="a" width="120" height="120" transform="translate(4110 7800)"/><g transform="translate(-1269 -2288)"><circle class="b" cx="28" cy="28" r="28" transform="translate(5396 10111)"/><circle class="b" cx="8.5" cy="8.5" r="8.5" transform="translate(5453 10111)"/><g transform="translate(-542 68)"><g transform="translate(5961 10077)"><path class="c" d="M54.484,109.851a7.192,7.192,0,1,0-8.252,0,12.462,12.462,0,0,0-4.251,2.493,16.125,16.125,0,0,0-5.834-3.179,9.112,9.112,0,1,0-9.424,0,16.26,16.26,0,0,0-5.771,3.141,12.563,12.563,0,0,0-4.2-2.443,7.192,7.192,0,1,0-8.252,0A12.625,12.625,0,0,0,0,121.792v.823a.054.054,0,0,0,.05.05H15.294a16.765,16.765,0,0,0-.137,2.107v.848a6.628,6.628,0,0,0,6.631,6.631H41.109a6.628,6.628,0,0,0,6.631-6.631v-.848a16.765,16.765,0,0,0-.137-2.107H62.948a.054.054,0,0,0,.05-.05v-.823A12.673,12.673,0,0,0,54.484,109.851Zm-9.324-5.9a5.2,5.2,0,1,1,5.3,5.2h-.2A5.19,5.19,0,0,1,45.16,103.955Zm-20.866-2.593a7.117,7.117,0,1,1,7.529,7.105H31A7.128,7.128,0,0,1,24.294,101.362Zm-16.9,2.593a5.2,5.2,0,1,1,5.3,5.2h-.2A5.2,5.2,0,0,1,7.392,103.955Zm8.252,16.7H2.019a10.65,10.65,0,0,1,10.5-9.511h.15a10.54,10.54,0,0,1,6.793,2.53A16.366,16.366,0,0,0,15.644,120.658Zm30.078,4.961a4.644,4.644,0,0,1-4.637,4.637H21.764a4.644,4.644,0,0,1-4.637-4.637v-.848A14.319,14.319,0,0,1,31,110.474c.137.012.287.012.424.012s.287,0,.424-.012a14.319,14.319,0,0,1,13.873,14.3Zm1.483-4.961a16.323,16.323,0,0,0-3.777-6.931,10.591,10.591,0,0,1,6.856-2.58h.15a10.65,10.65,0,0,1,10.5,9.511Z" transform="translate(0 -92.25)"/><path class="c" d="M54.484,109.851a7.192,7.192,0,1,0-8.252,0,12.462,12.462,0,0,0-4.251,2.493,16.125,16.125,0,0,0-5.834-3.179,9.112,9.112,0,1,0-9.424,0,16.26,16.26,0,0,0-5.771,3.141,12.563,12.563,0,0,0-4.2-2.443,7.192,7.192,0,1,0-8.252,0A12.625,12.625,0,0,0,0,121.792v.823a.054.054,0,0,0,.05.05H15.294a16.765,16.765,0,0,0-.137,2.107v.848a6.628,6.628,0,0,0,6.631,6.631H41.109a6.628,6.628,0,0,0,6.631-6.631v-.848a16.765,16.765,0,0,0-.137-2.107H62.948a.054.054,0,0,0,.05-.05v-.823A12.673,12.673,0,0,0,54.484,109.851Zm-9.324-5.9a5.2,5.2,0,1,1,5.3,5.2h-.2A5.19,5.19,0,0,1,45.16,103.955Zm-20.866-2.593a7.117,7.117,0,1,1,7.529,7.105H31A7.128,7.128,0,0,1,24.294,101.362Zm-16.9,2.593a5.2,5.2,0,1,1,5.3,5.2h-.2A5.2,5.2,0,0,1,7.392,103.955Zm8.252,16.7H2.019a10.65,10.65,0,0,1,10.5-9.511h.15a10.54,10.54,0,0,1,6.793,2.53A16.366,16.366,0,0,0,15.644,120.658Zm30.078,4.961a4.644,4.644,0,0,1-4.637,4.637H21.764a4.644,4.644,0,0,1-4.637-4.637v-.848A14.319,14.319,0,0,1,31,110.474c.137.012.287.012.424.012s.287,0,.424-.012a14.319,14.319,0,0,1,13.873,14.3Zm1.483-4.961a16.323,16.323,0,0,0-3.777-6.931,10.591,10.591,0,0,1,6.856-2.58h.15a10.65,10.65,0,0,1,10.5,9.511Z" transform="translate(0 -92.25)"/></g><g transform="translate(5983.325 10077)"><path class="d" d="M36.148,109.165a9.112,9.112,0,1,0-9.424,0C24.581,109.813,38.317,109.813,36.148,109.165Zm-11.854-7.8a7.117,7.117,0,1,1,7.529,7.105H31A7.128,7.128,0,0,1,24.294,101.362Z" transform="translate(-22.325 -92.25)"/></g></g></g></g></svg>