<svg xmlns="http://www.w3.org/2000/svg" xmlns:xlink="http://www.w3.org/1999/xlink" width="30" height="30" viewBox="0 0 30 30"><defs><style>.a{fill:#ff5c5c;}.b,.j,.m{fill:#fff;}.c,.f,.l,.n,.o{fill:none;}.c{stroke:#424b54;stroke-width:1.2px;}.c,.e{stroke-miterlimit:10;}.d,.e{fill:#424b54;}.e{stroke:#fff;}.f,.j{stroke:#ff5c5c;}.f{stroke-width:0.8px;}.g{clip-path:url(#a);}.h{clip-path:url(#b);}.i{clip-path:url(#c);}.k,.m{stroke:none;}.n{clip-path:url(#e);}.o{clip-path:url(#g);}</style><clipPath id="a"><path class="a" d="M.945-28.109a.945.945,0,0,0,.945-.945A.945.945,0,0,0,.945-30,.945.945,0,0,0,0-29.055.945.945,0,0,0,.945-28.109Z" transform="translate(0 30)"/></clipPath><clipPath id="b"><path class="a" d="M16.945-35.109a.945.945,0,0,0,.945-.945A.945.945,0,0,0,16.945-37a.945.945,0,0,0-.945.945A.945.945,0,0,0,16.945-35.109Z" transform="translate(-16 37)"/></clipPath><clipPath id="c"><path class="a" d="M28.945-26.109a.945.945,0,0,0,.945-.945A.945.945,0,0,0,28.945-28a.945.945,0,0,0-.945.945A.945.945,0,0,0,28.945-26.109Z" transform="translate(-28 28)"/></clipPath><clipPath id="e"><use xlink:href="#d"/></clipPath><clipPath id="g"><use xlink:href="#f"/></clipPath></defs><g transform="translate(-1743 -6255)"><rect class="b" width="30" height="30" transform="translate(1743 6255)"/><g transform="translate(-8895.071 2542.243)"><g class="c" transform="translate(10643.806 3714.757)"><rect class="k" width="21.246" height="25.534" rx="4"/><rect class="l" x="0.6" y="0.6" width="20.046" height="24.334" rx="3.4"/></g><g class="d" transform="translate(10642.071 3722.179)"><path class="k" d="M 4.1203932762146 1.54078197479248 L 0.6491734981536865 1.54078197479248 C 0.01552350632846355 1.54078197479248 -0.4999964833259583 1.083032011985779 -0.4999964833259583 0.5203920006752014 C -0.4999964833259583 -0.04224799945950508 0.01552350632846355 -0.4999980032444 0.6491734981536865 -0.4999980032444 L 4.1203932762146 -0.4999980032444 C 4.754043579101563 -0.4999980032444 5.269563674926758 -0.04224799945950508 5.269563674926758 0.5203920006752014 C 5.269563674926758 1.083032011985779 4.754043579101563 1.54078197479248 4.1203932762146 1.54078197479248 Z"/><path class="m" d="M 0.6491737365722656 2.026557922363281e-06 C 0.2906436920166016 2.026557922363281e-06 3.337860107421875e-06 0.2329919934272766 3.337860107421875e-06 0.5203920006752014 C 3.337860107421875e-06 0.8077920079231262 0.2906436920166016 1.04078197479248 0.6491737365722656 1.04078197479248 L 4.120393753051758 1.04078197479248 C 4.478923320770264 1.04078197479248 4.769563674926758 0.8077920079231262 4.769563674926758 0.5203920006752014 C 4.769563674926758 0.2329919934272766 4.478923320770264 2.026557922363281e-06 4.120393753051758 2.026557922363281e-06 L 0.6491737365722656 2.026557922363281e-06 M 0.6491737365722656 -0.9999979734420776 L 4.120393753051758 -0.9999979734420776 C 5.029753684997559 -0.9999979734420776 5.769563674926758 -0.3179579973220825 5.769563674926758 0.5203920006752014 C 5.769563674926758 1.358741998672485 5.029753684997559 2.04078197479248 4.120393753051758 2.04078197479248 L 0.6491737365722656 2.04078197479248 C -0.2601866722106934 2.04078197479248 -0.9999966621398926 1.358741998672485 -0.9999966621398926 0.5203920006752014 C -0.9999966621398926 -0.3179579973220825 -0.2601866722106934 -0.9999979734420776 0.6491737365722656 -0.9999979734420776 Z"/></g><g class="e" transform="translate(10642.071 3727.102)"><rect class="k" width="4.77" height="1.041" rx="0.52"/><rect class="l" x="-0.5" y="-0.5" width="5.77" height="2.041" rx="1.02"/></g><g class="e" transform="translate(10642.071 3732.024)"><rect class="k" width="4.77" height="1.041" rx="0.52"/><rect class="l" x="-0.5" y="-0.5" width="5.77" height="2.041" rx="1.02"/></g><g transform="translate(10648.267 3717.927)"><g transform="translate(1.659 2.473)"><path class="f" d="M.025,2.869Q1.589,7,5.216,7.833c2.118.489,1.439-6.712.506-7.654C5.589.046,5.644.02,5.378,0s-.412.379-.692.874C4.07,1.963,3.379,4.146,3.517,8.3c.027.829.156,2.164.659,2.612s1.052-.014,1.7-.508A24.141,24.141,0,0,0,9.345,4.4a1.972,1.972,0,0,0,0-1.137,1.071,1.071,0,0,0-.738-.568,1.6,1.6,0,0,0-1.225.392A3.836,3.836,0,0,1,4.7,3.9,5.375,5.375,0,0,1,1.8,2.694L.708,2.153a.8.8,0,0,0-.556,0Q-.061,2.252.025,2.869Z" transform="translate(0 0)"/></g><g class="g" transform="translate(0 2.647)"><path class="a" d="M-5-29.327H.673V-35H-5Z" transform="translate(3.109 33.109)"/></g><g class="h" transform="translate(6.051 0)"><path class="a" d="M11-36.327h5.673V-42H11Z" transform="translate(-12.891 40.109)"/></g><g class="i" transform="translate(10.589 3.404)"><path class="a" d="M23-27.327h5.673V-33H23Z" transform="translate(-24.891 31.109)"/></g></g><g class="j" transform="translate(10648.96 3733.66)"><rect id="d" class="k" width="9.02" height="0.694"/><path class="n" d="M0,0.19385600090026855h9.020099639892578M8.520099639892578,0v0.6938560009002686M9.020099639892578,0.5h-9.020099639892578M0.5,0.6938560009002686v-0.6938560009002686"/></g><g class="j" transform="translate(10648.96 3735.741)"><rect id="f" class="k" width="4.51" height="0.694"/><path class="o" d="M0,0.19385600090026855h4.510049819946289M4.010049819946289,0v0.6938560009002686M4.510049819946289,0.5h-4.510049819946289M0.5,0.6938560009002686v-0.6938560009002686"/></g></g></g></svg>