<svg xmlns="http://www.w3.org/2000/svg" width="30" height="30" viewBox="0 0 30 30"><defs><style>.a{fill:#fff;}.b{fill:#434c55;}.c{fill:#ff5c5c;}</style></defs><g transform="translate(-35 -719)"><rect class="a" width="30" height="30" transform="translate(35 719)"/><g transform="translate(0 373)"><path class="b" d="M19.312,15.633c-1.807-1.563-3.479-3.767-3.479-9.272a5.782,5.782,0,0,0-11.563,0c0,5.509-1.672,7.712-3.48,9.273A2.289,2.289,0,0,0,0,17.36a.658.658,0,0,0,.658.658H6.9a3.22,3.22,0,0,0,6.3,0h6.241a.658.658,0,0,0,.658-.658A2.276,2.276,0,0,0,19.312,15.633Zm-9.261,3.632a1.908,1.908,0,0,1-1.787-1.247h3.574A1.908,1.908,0,0,1,10.051,19.265ZM1.574,16.7a.968.968,0,0,1,.076-.074c2.757-2.38,3.934-5.451,3.934-10.267a4.466,4.466,0,0,1,8.933,0c0,4.812,1.177,7.882,3.935,10.268a.977.977,0,0,1,.076.073Z" transform="translate(40 351.42)"/><path class="c" d="M6.9,18.018a3.22,3.22,0,0,0,6.3,0Zm3.152,1.247a1.908,1.908,0,0,1-1.787-1.247h3.574A1.908,1.908,0,0,1,10.051,19.265Z" transform="translate(40 351.42)"/></g></g></svg>