<svg xmlns="http://www.w3.org/2000/svg" xmlns:xlink="http://www.w3.org/1999/xlink" width="120" height="120" viewBox="0 0 120 120"><defs><style>.a{fill:#424b54;stroke:#414141;stroke-width:1.5px;}.b{fill:#e31836;}.c{fill:#fff;}.d{fill:#fee8e8;}.e{clip-path:url(#a);}.f{clip-path:url(#b);}.g{clip-path:url(#c);}.h{clip-path:url(#d);}</style><clipPath id="a"><path class="a" d="M32.327-469.271l2.861-2.862-6.055-6.055-2.862,2.861a15.249,15.249,0,0,0-3.15-1.3v-3.97a7.62,7.62,0,0,0,4.282-6.934,8.575,8.575,0,0,0-5.708-8.067l-1.141-.4v7l-1.713.571L17.127-489v-7l-1.142.4a8.575,8.575,0,0,0-5.708,8.067,7.62,7.62,0,0,0,4.282,6.934v3.97a15.294,15.294,0,0,0-3.15,1.3l-2.862-2.861L2.49-472.133l2.861,2.862a15.23,15.23,0,0,0-1.306,3.15H0v8.563H4.045a15.277,15.277,0,0,0,1.306,3.151L2.49-451.545l6.055,6.055,2.862-2.861a15.23,15.23,0,0,0,3.15,1.306V-443h8.563v-4.045a15.278,15.278,0,0,0,3.15-1.306l2.862,2.861,6.055-6.055-2.861-2.862a15.23,15.23,0,0,0,1.306-3.151h4.045v-8.563H33.633A15.234,15.234,0,0,0,32.327-469.271ZM11.989-487.529a6.86,6.86,0,0,1,3.425-5.925v5.686l3.425,1.141,3.425-1.141v-5.686a6.86,6.86,0,0,1,3.425,5.925A6,6,0,0,1,21.9-481.9l-.49.232v13.83h1.713v-1.427a8.507,8.507,0,0,1,4.282,7.421,8.56,8.56,0,0,1-4.282,7.4v-11.686H21.408v12.45a8.521,8.521,0,0,1-2.569.395,8.521,8.521,0,0,1-2.569-.395v-27.993l-.49-.232A6,6,0,0,1,11.989-487.529ZM35.966-459.27H32.3l-.158.655a13.567,13.567,0,0,1-1.618,3.9l-.352.575,2.594,2.593-3.633,3.633-2.593-2.594-.575.352a13.577,13.577,0,0,1-3.9,1.618l-.656.159v3.665H16.27v-3.665l-.655-.158a13.568,13.568,0,0,1-3.9-1.618l-.575-.352-2.593,2.594-3.633-3.633,2.594-2.593-.352-.575a13.577,13.577,0,0,1-1.618-3.9l-.159-.656H1.713v-5.138H5.378l.158-.655a13.565,13.565,0,0,1,1.618-3.9l.352-.576-2.594-2.593,3.633-3.633,2.593,2.594.575-.352a13.521,13.521,0,0,1,2.843-1.314v3.662a10.208,10.208,0,0,0-5.994,9.338,10.287,10.287,0,0,0,10.276,10.276,10.287,10.287,0,0,0,10.276-10.276,10.206,10.206,0,0,0-5.994-9.338v-3.662a13.6,13.6,0,0,1,2.843,1.314l.575.352,2.593-2.594,3.633,3.633-2.594,2.593.352.576a13.576,13.576,0,0,1,1.618,3.9l.16.655h3.665Zm-21.408-9.989v14.825a8.56,8.56,0,0,1-4.282-7.4A8.506,8.506,0,0,1,14.558-469.259Z" transform="translate(0 496)"/></clipPath><clipPath id="b"><path class="b" d="M101.994-476.422c-1.244-.037-2.054-.1-1.713-.2v-3.97A7.62,7.62,0,0,1,96-487.529a8.575,8.575,0,0,1,5.708-8.067l1.142-.4v7l1.713.571,1.713-.571v-7l1.141.4a8.575,8.575,0,0,1,5.708,8.067,7.62,7.62,0,0,1-4.282,6.934v3.97c.341.1-.468.166-1.712.2v-5.241l.49-.232a6,6,0,0,0,3.792-5.634,6.86,6.86,0,0,0-3.425-5.925v5.686l-3.425,1.141-3.425-1.141v-5.686a6.86,6.86,0,0,0-3.425,5.925A6,6,0,0,0,101.5-481.9l.49.232Z" transform="translate(-96 496)"/></clipPath><clipPath id="c"><path class="b" d="M136-321h1.713v23.549a6.863,6.863,0,0,1-.856-.265,8.4,8.4,0,0,1-.856-.439Z" transform="translate(-136 321)"/></clipPath><clipPath id="d"><path class="b" d="M200-321h1.713v22.845l-1.713.7Z" transform="translate(-200 321)"/></clipPath></defs><g transform="translate(-3306 -8995)"><rect class="c" width="120" height="120" transform="translate(3306 8995)"/><g transform="translate(-328.623 8.337)"><path class="d" d="M26.6-7.337C45.1-7.337,66.93,10.328,66.93,28c0,9.367-2.379,14.012-6.82,17.44-3.488,2.7-8.47,4.7-17.166,4.7-18.5,0-45.322-8.453-45.322-26.126S8.1-7.337,26.6-7.337Z" transform="translate(3655 9007)"/><path class="d" d="M5.7-7.337c5.154,0,11.235,4.921,11.235,9.844,0,2.609-.663,3.9-1.9,4.859a7.369,7.369,0,0,1-4.782,1.309C5.094,8.675-2.377,6.32-2.377,1.4S.541-7.337,5.7-7.337Z" transform="translate(3700 9085.683)"/><g transform="translate(3445 8814)"><g transform="translate(253 207)"><g class="e"><path class="a" d="M-5-446.93H33.749V-501H-5Z" transform="translate(4.465 500.465)"/></g><g class="f" transform="translate(10.276)"><path class="b" d="M91-480.352h18.2V-501H91Z" transform="translate(-91.535 500.465)"/></g><g class="g" transform="translate(14.558 18.732)"><path class="b" d="M131-301.381h2.783V-326H131Z" transform="translate(-131.535 325.465)"/></g><g class="h" transform="translate(21.408 18.732)"><path class="b" d="M195-301.381h2.783V-326H195Z" transform="translate(-195.535 325.465)"/></g></g></g></g></g></svg>