<svg xmlns="http://www.w3.org/2000/svg" width="30" height="30" viewBox="0 0 30 30"><defs><style>.a{fill:#fff;}.b{fill:#424b54;stroke:#424b54;stroke-width:0.5px;}.c{fill:#ff5c5c;}</style></defs><g transform="translate(-3278 -8916)"><rect class="a" width="30" height="30" transform="translate(3278 8916)"/><g transform="translate(3282 8920)"><path class="b" d="M21.08,9.9H19.8V7.6a1,1,0,0,0-1-1H17.6V5.715l-.181-.181h0L14.743,2.857,11.885,0H2.933V4.033H1a1,1,0,0,0-1,1V21.054H0A.936.936,0,0,0,.941,22H17.352a.931.931,0,0,0,.9-.665L22,11.055V10.99A.982.982,0,0,0,21.08,9.9ZM18.8,7.333a.269.269,0,0,1,.268.268V9.9H17.6V7.333ZM12.1,1.252,16.348,5.5H12.1ZM3.667.733h7.7v5.5h5.5V9.9H4.668a.941.941,0,0,0-.155.013.925.925,0,0,0-.744.652l-.1.283V.733ZM.733,5.035A.269.269,0,0,1,1,4.767H2.933v8.08l-2.2,6ZM17.552,21.114a.207.207,0,0,1-.2.153H.941a.2.2,0,0,1-.164-.081.2.2,0,0,1-.045-.15L2.933,15v0l1.525-4.181.01-.03a.208.208,0,0,1,.2-.153H21.08c.139,0,.175.2.184.3Z"/><path class="c" d="M15.367,15.733h3.667a.367.367,0,1,0,0-.733H15.367a.367.367,0,0,0,0,.733Z" transform="translate(-9.5 -9.5)"/><path class="c" d="M15.367,8.733h3.667a.367.367,0,1,0,0-.733H15.367a.367.367,0,0,0,0,.733Z" transform="translate(-9.5 -5.067)"/><path class="c" d="M15.367,22.733h8.8a.367.367,0,0,0,0-.733h-8.8a.367.367,0,0,0,0,.733Z" transform="translate(-9.5 -13.933)"/></g></g></svg>