<svg xmlns="http://www.w3.org/2000/svg" width="120" height="120" viewBox="0 0 120 120"><defs><style>.a{fill:none;}.b{fill:#fee8e8;}.c{fill:#ff5c5c;}.d{fill:#424b54;}</style></defs><g transform="translate(-816 -640)"><rect class="a" width="120" height="120" transform="translate(816 640)"/><path class="b" d="M5704.265,10149.35l-46.153,32.6-29.028-38.2,46.988-33.8Z" transform="translate(-4797.084 -9454.943)"/><path class="b" d="M5730.135,10170.139l-19.577-13.373-12.768,13.373,20.425,17.473Z" transform="translate(-4800.61 -9452.825)"/><g transform="translate(839.927 697)"><g transform="translate(36.073)"><path class="c" d="M146.988,25.118h.309a8.908,8.908,0,0,0,6.806-2.944c3.717-4.19,3.1-11.372,3.031-12.057-.241-5.145-2.674-7.607-4.682-8.756A10.733,10.733,0,0,0,147.258,0h-.164A10.75,10.75,0,0,0,141.9,1.323c-2.027,1.149-4.5,3.61-4.74,8.794-.068.685-.685,7.868,3.031,12.057A8.872,8.872,0,0,0,146.988,25.118Zm-7.25-14.76c0-.029.01-.058.01-.077.319-6.922,5.232-7.665,7.337-7.665h.116c2.606.058,7.037,1.12,7.337,7.665a.188.188,0,0,0,.01.077c.01.068.685,6.632-2.384,10.088a6.327,6.327,0,0,1-4.972,2.066h-.1a6.306,6.306,0,0,1-4.962-2.066C139.072,17.009,139.728,10.416,139.738,10.358Z" transform="translate(-127.331 -6)"/><path class="d" d="M75.722,271.249v-.029c0-.077-.01-.154-.01-.241-.058-1.911-.183-6.381-4.373-7.81l-.1-.029a27.856,27.856,0,0,1-8.012-3.649,1.3,1.3,0,0,0-1.5,2.133,30.066,30.066,0,0,0,8.814,4.025c2.249.8,2.5,3.2,2.568,5.406a1.938,1.938,0,0,0,.01.241,17.523,17.523,0,0,1-.2,2.983A35.527,35.527,0,0,1,55.9,278.238a35.731,35.731,0,0,1-17.029-3.968,16.586,16.586,0,0,1-.2-2.983c0-.077.01-.154.01-.241.068-2.2.319-4.6,2.568-5.406a30.347,30.347,0,0,0,8.814-4.026,1.3,1.3,0,0,0-1.5-2.133,27.548,27.548,0,0,1-8.012,3.649c-.039.01-.068.019-.1.029-4.19,1.438-4.315,5.908-4.373,7.81a1.94,1.94,0,0,1-.01.241v.029a14.8,14.8,0,0,0,.492,4.373,1.239,1.239,0,0,0,.5.608c.29.193,7.23,4.614,18.844,4.614s18.554-4.431,18.844-4.614a1.292,1.292,0,0,0,.5-.608A15.532,15.532,0,0,0,75.722,271.249Z" transform="translate(-36.073 -240.218)"/></g></g></g></svg>