<svg xmlns="http://www.w3.org/2000/svg" width="120" height="120" viewBox="0 0 120 120"><defs><style>.a,.d,.e{fill:#fff;}.b{fill:#fee8e8;}.c{fill:#414141;stroke:#414141;stroke-width:0.2px;}.d{stroke:#e31836;stroke-width:2px;}.f,.h{stroke:none;}.g{fill:none;}.h{fill:#e31836;}</style></defs><g transform="translate(-3643 -7897)"><rect class="a" width="120" height="120" transform="translate(3643 7897)"/><g transform="translate(-1661.623 -1844.663)"><path class="b" d="M26.6-7.337C45.1-7.337,66.93,10.328,66.93,28c0,9.367-2.379,14.012-6.82,17.44-3.488,2.7-8.47,4.7-17.166,4.7-18.5,0-45.322-8.453-45.322-26.126S8.1-7.337,26.6-7.337Z" transform="translate(5320 9762)"/><path class="b" d="M5.7-7.337c5.154,0,11.235,4.921,11.235,9.844,0,2.609-.663,3.9-1.9,4.859a7.369,7.369,0,0,1-4.782,1.309C5.094,8.675-2.377,6.32-2.377,1.4S.541-7.337,5.7-7.337Z" transform="translate(5365 9840.683)"/><g transform="translate(5351 9791)"><path class="c" d="M60.143,34.541H56.775c-.394,3.4-2.3,4.667-5.724,4.667-2.521,0-1.507-3.685-3.221-5.789-.227-.233-4.334,2.016-4.437,1.123H21.611c-.395,3.4-.988,3.082-4.408,3.082-3.065,0-3.449-.243-4.8-3.082.036.17-4.134.353-4.175,0H1.121A1.122,1.122,0,0,1,0,33.418V1.623A1.123,1.123,0,0,1,1.121.5H40.08A1.123,1.123,0,0,1,41.2,1.623v6.3h9.51a1.124,1.124,0,0,1,.921.483l6.141,8.791,2.4,3.368.876,1.246a1.121,1.121,0,0,1,.2.64V33.385a1.124,1.124,0,0,1-1.112,1.156ZM50.106,37.909a4.491,4.491,0,1,0-4.491-4.49,4.547,4.547,0,0,0,4.491,4.547Zm-35.164,0a4.491,4.491,0,1,0-4.491-4.49,4.547,4.547,0,0,0,4.491,4.547ZM2.267,2.745v20.12H32.748a1.123,1.123,0,1,1,0,2.245H2.267V32.3H8.25s3.164.458,3.273,0c.285-2.939,4.22.718,7.641.718s2.075-4.115,2.469-.718H38.957V7.854H30.851a1.123,1.123,0,0,1,0-2.246h8.106V2.745Zm47.862,7.421H41.147V32.3h2.245c.026-.224.724.153.933-.509.624-2.423,3.531-3.872,6.725-3.872,3.42,0,5.33.984,5.724,4.381H59.02V22.808l-.337-.483h-13.7A1.122,1.122,0,0,1,43.864,21.2V12.9a1.123,1.123,0,0,1,1.123-1.123h6.288Zm2.717,3.874H46.109V20.1H57.123Zm0,0" transform="translate(0.001 -0.5)"/><g class="d" transform="translate(43.257 26)"><circle class="f" cx="7" cy="7" r="7"/><circle class="g" cx="7" cy="7" r="6"/></g><g class="e" transform="translate(8.257 26)"><path class="f" d="M 7.000217914581299 13.00043773651123 C 3.691687822341919 13.00043773651123 0.9999979138374329 10.30874824523926 0.9999979138374329 7.000217914581299 C 0.9999979138374329 3.691687822341919 3.691687822341919 0.9999979138374329 7.000217914581299 0.9999979138374329 C 10.30874824523926 0.9999979138374329 13.00043773651123 3.691687822341919 13.00043773651123 7.000217914581299 C 13.00043773651123 10.30874824523926 10.30874824523926 13.00043773651123 7.000217914581299 13.00043773651123 Z"/><path class="h" d="M 7.000217914581299 1.999998092651367 C 4.243087768554688 1.999998092651367 1.999998092651367 4.243087768554688 1.999998092651367 7.000217914581299 C 1.999998092651367 9.75734806060791 4.243087768554688 12.00043773651123 7.000217914581299 12.00043773651123 C 9.75734806060791 12.00043773651123 12.00043773651123 9.75734806060791 12.00043773651123 7.000217914581299 C 12.00043773651123 4.243087768554688 9.75734806060791 1.999998092651367 7.000217914581299 1.999998092651367 M 7.000217914581299 -1.9073486328125e-06 C 10.86632823944092 -1.9073486328125e-06 14.00043773651123 3.13410758972168 14.00043773651123 7.000217914581299 C 14.00043773651123 10.86632823944092 10.86632823944092 14.00043773651123 7.000217914581299 14.00043773651123 C 3.13410758972168 14.00043773651123 -1.9073486328125e-06 10.86632823944092 -1.9073486328125e-06 7.000217914581299 C -1.9073486328125e-06 3.13410758972168 3.13410758972168 -1.9073486328125e-06 7.000217914581299 -1.9073486328125e-06 Z"/></g></g></g></g></svg>