<svg xmlns="http://www.w3.org/2000/svg" width="30" height="30" viewBox="0 0 30 30"><defs><style>.a{fill:#fff;}.b{fill:#ff5c5c;}.c{fill:#424b54;}</style></defs><g transform="translate(-10206 -10687)"><rect class="a" width="30" height="30" transform="translate(10206 10687)"/><g transform="translate(10211 10690)"><path class="b" d="M93.053,12.043a5.827,5.827,0,0,0,4.258-1.764,5.827,5.827,0,0,0,1.764-4.257,5.827,5.827,0,0,0-1.764-4.257,6.02,6.02,0,0,0-8.515,0,5.826,5.826,0,0,0-1.764,4.257A5.827,5.827,0,0,0,88.8,10.279,5.828,5.828,0,0,0,93.053,12.043ZM89.832,2.8a4.555,4.555,0,0,1,6.443,0A4.353,4.353,0,0,1,97.61,6.021a4.353,4.353,0,0,1-1.335,3.222,4.554,4.554,0,0,1-6.443,0A4.352,4.352,0,0,1,88.5,6.021,4.353,4.353,0,0,1,89.832,2.8Zm0,0" transform="translate(-82.782 0)"/><path class="c" d="M20.807,254.464a14.874,14.874,0,0,0-.2-1.58,12.447,12.447,0,0,0-.389-1.588,7.846,7.846,0,0,0-.653-1.481,5.584,5.584,0,0,0-.984-1.283,4.341,4.341,0,0,0-1.414-.889,4.888,4.888,0,0,0-1.806-.327,1.833,1.833,0,0,0-.979.415c-.293.191-.636.413-1.019.657a5.843,5.843,0,0,1-1.319.581,5.123,5.123,0,0,1-3.227,0,5.824,5.824,0,0,1-1.318-.581c-.379-.242-.723-.464-1.02-.658a1.831,1.831,0,0,0-.978-.415,4.881,4.881,0,0,0-1.805.327,4.338,4.338,0,0,0-1.415.889,5.586,5.586,0,0,0-.984,1.283A7.861,7.861,0,0,0,.641,251.3a12.477,12.477,0,0,0-.388,1.588,14.772,14.772,0,0,0-.2,1.58c-.033.477-.05.974-.05,1.476a4.151,4.151,0,0,0,1.233,3.141A4.438,4.438,0,0,0,4.41,260.24H16.448a4.438,4.438,0,0,0,3.177-1.159,4.15,4.15,0,0,0,1.233-3.141c0-.5-.017-1-.051-1.477Zm-2.193,3.556a2.988,2.988,0,0,1-2.167.755H4.41a2.988,2.988,0,0,1-2.167-.755,2.711,2.711,0,0,1-.778-2.079c0-.468.015-.931.046-1.375a13.323,13.323,0,0,1,.183-1.423,11,11,0,0,1,.342-1.4,6.4,6.4,0,0,1,.531-1.2,4.139,4.139,0,0,1,.723-.948,2.88,2.88,0,0,1,.941-.585,3.372,3.372,0,0,1,1.154-.223c.051.027.143.079.291.176.3.2.648.42,1.032.665a7.258,7.258,0,0,0,1.656.74,6.586,6.586,0,0,0,4.128,0,7.267,7.267,0,0,0,1.657-.74c.393-.251.73-.468,1.031-.665.148-.1.239-.149.291-.176a3.374,3.374,0,0,1,1.154.223,2.884,2.884,0,0,1,.941.585,4.128,4.128,0,0,1,.723.948,6.378,6.378,0,0,1,.532,1.2,10.979,10.979,0,0,1,.342,1.4,13.436,13.436,0,0,1,.183,1.423h0c.031.442.047.9.047,1.374a2.711,2.711,0,0,1-.778,2.079Zm0,0" transform="translate(0 -235.24)"/></g></g></svg>