<svg xmlns="http://www.w3.org/2000/svg" width="120" height="120" viewBox="0 0 120 120"><defs><style>.a,.d,.e{fill:#fff;}.b{fill:#fee8e8;}.c,.f{fill:#414141;stroke:#414141;}.c{stroke-width:0.2px;}.d,.g{stroke:#e31836;}.d{stroke-width:2px;}.f,.g{stroke-width:0.5px;}.g,.j{fill:#e31836;}.h,.j{stroke:none;}.i{fill:none;}</style></defs><g transform="translate(-4067 -7775)"><rect class="a" width="120" height="120" transform="translate(4067 7775)"/><g transform="translate(-1543.378 -2315.944)"><path class="b" d="M5629.083,10135.838l36.664-25.894,23.06,30.346-37.328,26.852Z"/><path class="b" d="M5697.791,10163.675l10.115-6.909,6.6,6.909-10.552,9.027Z"/><g transform="translate(4479 9583)"><g transform="translate(-2543 -7384)"><g transform="translate(-1661.623 -1844.663)"><g transform="translate(5351 9791)"><path class="c" d="M1.111,34.541H4.479c.394,3.4,2.3,4.667,5.724,4.667,2.521,0,1.507-3.685,3.221-5.789.227-.233,4.333,2.016,4.437,1.123H39.643c.395,3.4.988,3.082,4.407,3.082,3.065,0,3.449-.243,4.8-3.082-.036.17,4.134.353,4.175,0h7.107a1.122,1.122,0,0,0,1.123-1.123V1.623A1.123,1.123,0,0,0,60.132.5H21.174a1.123,1.123,0,0,0-1.122,1.123v6.3h-9.51a1.124,1.124,0,0,0-.921.483L3.48,17.194l-2.4,3.368L.2,21.809a1.121,1.121,0,0,0-.2.64V33.385a1.124,1.124,0,0,0,1.112,1.156Zm10.037,3.368a4.491,4.491,0,1,1,4.491-4.49,4.547,4.547,0,0,1-4.491,4.547Zm35.163,0a4.491,4.491,0,1,1,4.491-4.49,4.547,4.547,0,0,1-4.491,4.547ZM58.987,2.745V22.865H28.505a1.123,1.123,0,1,0,0,2.245H58.987V32.3H53s-3.164.458-3.273,0c-.285-2.939-4.22.718-7.641.718S40.015,28.9,39.62,32.3H22.3V7.854H30.4a1.123,1.123,0,0,0,0-2.246H22.3V2.745ZM11.126,10.167h8.981V32.3H17.862c-.026-.224-.724.153-.933-.509C16.3,29.364,13.4,27.914,10.2,27.914c-3.42,0-5.33.984-5.724,4.381H2.234V22.808l.337-.483h13.7A1.122,1.122,0,0,0,17.39,21.2V12.9a1.123,1.123,0,0,0-1.123-1.123H9.98ZM8.409,14.04h6.736V20.1H4.131Zm0,0" transform="translate(0.002 -0.5)"/><g class="d" transform="translate(4 26)"><circle class="h" cx="7" cy="7" r="7"/><circle class="i" cx="7" cy="7" r="6"/></g><g class="e" transform="translate(39 26)"><path class="h" d="M 7.000141143798828 13.00028228759766 C 3.691651105880737 13.00028228759766 1.000001192092896 10.30863189697266 1.000001192092896 7.000142097473145 C 1.000001192092896 3.691652059555054 3.691651105880737 1.000002145767212 7.000141143798828 1.000002145767212 C 10.30863094329834 1.000002145767212 13.00028133392334 3.691652059555054 13.00028133392334 7.000142097473145 C 13.00028133392334 10.30863189697266 10.30863094329834 13.00028228759766 7.000141143798828 13.00028228759766 Z"/><path class="j" d="M 7.000141143798828 2.000001907348633 C 4.243051528930664 2.000001907348633 2.000000953674316 4.24305248260498 2.000000953674316 7.000142097473145 C 2.000000953674316 9.757232666015625 4.243051528930664 12.00028228759766 7.000141143798828 12.00028228759766 C 9.757230758666992 12.00028228759766 12.00028133392334 9.757232666015625 12.00028133392334 7.000142097473145 C 12.00028133392334 4.24305248260498 9.757230758666992 2.000001907348633 7.000141143798828 2.000001907348633 M 7.000141143798828 1.9073486328125e-06 C 10.8662109375 1.9073486328125e-06 14.00028133392334 3.134072303771973 14.00028133392334 7.000142097473145 C 14.00028133392334 10.86621189117432 10.8662109375 14.00028228759766 7.000141143798828 14.00028228759766 C 3.134071350097656 14.00028228759766 9.5367431640625e-07 10.86621189117432 9.5367431640625e-07 7.000142097473145 C 9.5367431640625e-07 3.134072303771973 3.134071350097656 1.9073486328125e-06 7.000141143798828 1.9073486328125e-06 Z"/></g></g></g></g><g transform="translate(15 -98.158)"><ellipse class="a" cx="23.21" cy="16.579" rx="23.21" ry="16.579" transform="translate(1156 674)"/><g transform="translate(1160.22 678.22)"><g transform="translate(0)"><path class="f" d="M32.847,102.861a4.336,4.336,0,1,0-4.975,0,7.513,7.513,0,0,0-2.563,1.5,9.721,9.721,0,0,0-3.517-1.916,5.493,5.493,0,1,0-5.681,0,9.8,9.8,0,0,0-3.479,1.894,7.574,7.574,0,0,0-2.532-1.473,4.336,4.336,0,1,0-4.975,0A7.611,7.611,0,0,0,0,110.06v.5a.032.032,0,0,0,.03.03H9.221a10.107,10.107,0,0,0-.083,1.27v.511a4,4,0,0,0,4,4H24.784a4,4,0,0,0,4-4v-.511a10.107,10.107,0,0,0-.083-1.27h9.251a.032.032,0,0,0,.03-.03v-.5A7.64,7.64,0,0,0,32.847,102.861Zm-5.621-3.554a3.134,3.134,0,1,1,3.194,3.134H30.3A3.129,3.129,0,0,1,27.226,99.306Zm-12.58-1.563a4.291,4.291,0,1,1,4.539,4.283h-.5A4.3,4.3,0,0,1,14.646,97.743ZM4.456,99.306A3.134,3.134,0,1,1,7.65,102.44H7.53A3.134,3.134,0,0,1,4.456,99.306Zm4.975,10.07H1.217a6.421,6.421,0,0,1,6.327-5.734h.09a6.354,6.354,0,0,1,4.1,1.525A9.867,9.867,0,0,0,9.431,109.376Zm18.133,2.991a2.8,2.8,0,0,1-2.8,2.8H13.121a2.8,2.8,0,0,1-2.8-2.8v-.511a8.632,8.632,0,0,1,8.364-8.619c.083.008.173.008.256.008s.173,0,.256-.008a8.632,8.632,0,0,1,8.364,8.619Zm.894-2.991a9.841,9.841,0,0,0-2.277-4.178,6.385,6.385,0,0,1,4.133-1.556h.09a6.421,6.421,0,0,1,6.327,5.734Z" transform="translate(0 -92.25)"/><path class="f" d="M32.847,102.861a4.336,4.336,0,1,0-4.975,0,7.513,7.513,0,0,0-2.563,1.5,9.721,9.721,0,0,0-3.517-1.916,5.493,5.493,0,1,0-5.681,0,9.8,9.8,0,0,0-3.479,1.894,7.574,7.574,0,0,0-2.532-1.473,4.336,4.336,0,1,0-4.975,0A7.611,7.611,0,0,0,0,110.06v.5a.032.032,0,0,0,.03.03H9.221a10.107,10.107,0,0,0-.083,1.27v.511a4,4,0,0,0,4,4H24.784a4,4,0,0,0,4-4v-.511a10.107,10.107,0,0,0-.083-1.27h9.251a.032.032,0,0,0,.03-.03v-.5A7.64,7.64,0,0,0,32.847,102.861Zm-5.621-3.554a3.134,3.134,0,1,1,3.194,3.134H30.3A3.129,3.129,0,0,1,27.226,99.306Zm-12.58-1.563a4.291,4.291,0,1,1,4.539,4.283h-.5A4.3,4.3,0,0,1,14.646,97.743ZM4.456,99.306A3.134,3.134,0,1,1,7.65,102.44H7.53A3.134,3.134,0,0,1,4.456,99.306Zm4.975,10.07H1.217a6.421,6.421,0,0,1,6.327-5.734h.09a6.354,6.354,0,0,1,4.1,1.525A9.867,9.867,0,0,0,9.431,109.376Zm18.133,2.991a2.8,2.8,0,0,1-2.8,2.8H13.121a2.8,2.8,0,0,1-2.8-2.8v-.511a8.632,8.632,0,0,1,8.364-8.619c.083.008.173.008.256.008s.173,0,.256-.008a8.632,8.632,0,0,1,8.364,8.619Zm.894-2.991a9.841,9.841,0,0,0-2.277-4.178,6.385,6.385,0,0,1,4.133-1.556h.09a6.421,6.421,0,0,1,6.327,5.734Z" transform="translate(0 -92.25)"/></g><g transform="translate(13.459)"><path class="g" d="M30.659,102.447a5.493,5.493,0,1,0-5.681,0C23.685,102.838,31.966,102.838,30.659,102.447Zm-7.147-4.7a4.291,4.291,0,1,1,4.539,4.283h-.5A4.3,4.3,0,0,1,23.512,97.743Z" transform="translate(-22.325 -92.25)"/></g></g></g></g></g></g></svg>