<svg xmlns="http://www.w3.org/2000/svg" width="120" height="120" viewBox="0 0 120 120"><defs><style>.a{fill:#fff;}.b{fill:#fee8e8;}.c{fill:none;}.d{fill:#e31836;}.e{fill:#414141;}</style></defs><g transform="translate(-3806 -7891)"><rect class="a" width="120" height="120" transform="translate(3806 7891)"/><g transform="translate(-1822.417 -2018.555)"><path class="b" d="M5643.4,9934.555l57.99,28.218-61.971,37.291Z"/><path class="b" d="M5704.126,9941.868h13.489l-1.711,12.81Z"/><g transform="translate(5651.5 9795.984)"><path class="c" d="M39.048,330.414a.087.087,0,0,0,.087.087h2.9a6.627,6.627,0,0,1,1.321-2.868H39.048Z" transform="translate(-32.067 -133.119)"/><path class="c" d="M75.269,327.632h-.052a4.13,4.13,0,1,0,.052,0Zm-.012,5.39a1.261,1.261,0,0,1-.014-2.522h.014a1.261,1.261,0,1,1,0,2.522Z" transform="translate(-58.74 -133.119)"/><path class="c" d="M18.651,210.385H63.39a5.684,5.684,0,0,0,5.678-5.678v-5.214a5.684,5.684,0,0,0-5.678-5.678H18.651a5.684,5.684,0,0,0-5.678,5.678v5.214A5.684,5.684,0,0,0,18.651,210.385Z" transform="translate(-10.376 -21.801)"/><path class="c" d="M139.4,327.632h-.052a4.13,4.13,0,1,0,.052,0Zm-.012,5.39a1.261,1.261,0,0,1-.013-2.522h.013a1.261,1.261,0,1,1,0,2.522Z" transform="translate(-112.087 -133.119)"/><path class="c" d="M239.849,179.159a.2.2,0,0,0-.2-.2H234.96a.2.2,0,0,0-.2.2v.2h5.089Z" transform="translate(-194.873 -9.443)"/><path class="c" d="M99.636,179.159a.2.2,0,0,0-.2-.2H94.747a.2.2,0,0,0-.2.2v.2h5.089Z" transform="translate(-78.234 -9.443)"/><path class="c" d="M403.914,327.629h-.035a4.081,4.081,0,1,0,.035,0Zm0,5.391a1.261,1.261,0,0,1-.013-2.522h.013a1.261,1.261,0,1,1,0,2.522Z" transform="translate(-332.143 -133.116)"/><path class="c" d="M413.426,202.295a1.261,1.261,0,0,1,1.261-1.261h1.435v-3.014A1.425,1.425,0,0,0,415.7,197l-.189-.189h-10.26a2.612,2.612,0,0,1-2.609-2.609v-6.739a1.261,1.261,0,0,1,1.261-1.261h6.786l-.956-2.869h-9.873a.087.087,0,0,0-.087.087h0v21.652h4.13a6.662,6.662,0,0,1,6.119,4.044h6.011a.087.087,0,0,0,.087-.087v-5.478h-1.435A1.261,1.261,0,0,1,413.426,202.295Z" transform="translate(-332.143 -13.086)"/><path class="c" d="M431.839,220.88a.087.087,0,0,0,.087.087h8.134l-1.855-5.565h-6.366Z" transform="translate(-358.815 -39.759)"/><path class="d" d="M418.147,344.692h-.014a1.268,1.268,0,1,0,.014,0Z" transform="translate(-346.371 -147.31)"/><path class="d" d="M8.275,191.63h44.74c4.287,0,7.775-3.834,7.775-8.546v-5.732c0-4.712-3.488-8.546-7.775-8.546h-5.9v-.268a2.468,2.468,0,0,0-2.341-2.573H40.088a2.468,2.468,0,0,0-2.341,2.573v.268h-14.2v-.268a2.468,2.468,0,0,0-2.341-2.573H16.513a2.468,2.468,0,0,0-2.341,2.573v.268h-5.9c-4.287,0-7.775,3.834-7.775,8.546v5.732C.5,187.8,3.988,191.63,8.275,191.63Zm31.613-23.044a.209.209,0,0,1,.2-.22h4.689a.209.209,0,0,1,.2.22v.22H39.887Zm-23.575,0a.209.209,0,0,1,.2-.22H21.2a.209.209,0,0,1,.2.22v.22H16.313ZM2.6,177.353a5.986,5.986,0,0,1,5.678-6.241h44.74a5.986,5.986,0,0,1,5.678,6.241v5.732a5.986,5.986,0,0,1-5.678,6.241H8.275A5.986,5.986,0,0,1,2.6,183.084Z" transform="translate(0 -0.949)"/><path class="d" d="M153.615,344.692H153.6a1.268,1.268,0,1,0,.013,0Z" transform="translate(-126.316 -147.31)"/><path class="d" d="M89.486,344.692h-.014a1.268,1.268,0,1,0,.014,0Z" transform="translate(-72.969 -147.31)"/><path class="e" d="M86.015,182.637l-1.683-1.683-3.39-10.171a1.252,1.252,0,0,0-.379-2.444H65.933v24.08H63.172a1.252,1.252,0,0,0,0,2.5h4.193a6.575,6.575,0,0,0-1.311,2.847H34.871a6.577,6.577,0,0,0-1.311-2.847H56.83a1.252,1.252,0,0,0,0-2.5H3.316a1.251,1.251,0,0,0-1.249,1.2c0,.016,0,.033,0,.049a1.252,1.252,0,0,0,1.252,1.252H5.733v2.761a2.592,2.592,0,0,0,2.589,2.589H11.2a6.6,6.6,0,0,0,11.833,2.609,6.6,6.6,0,0,0,11.833-2.609H66.053a6.6,6.6,0,0,0,13.085-1.252c0-.029,0-.057,0-.085h5.439a2.592,2.592,0,0,0,2.589-2.589V185.414A3.9,3.9,0,0,0,86.015,182.637ZM11.2,197.77H8.322a.086.086,0,0,1-.086-.086v-2.761h4.28A6.577,6.577,0,0,0,11.2,197.77Zm6.482,5.351a4.1,4.1,0,0,1-.026-8.2h.051a4.1,4.1,0,0,1-.026,8.2Zm10.7,0a4.1,4.1,0,0,1-.026-8.2h.051a4.1,4.1,0,0,1-.026,8.2Zm53.558-21.4H73.874a.086.086,0,0,1-.086-.086v-5.437h6.319Zm-9.412,21.4a4.1,4.1,0,0,1-.026-8.2h.034a4.1,4.1,0,0,1-.009,8.2Zm12.126-6.774a.086.086,0,0,1-.086.086H78.609a6.613,6.613,0,0,0-6.074-4.014h-4.1V170.929h0a.086.086,0,0,1,.086-.086h9.8l.949,2.848H72.536a1.252,1.252,0,0,0-1.252,1.252v6.689a2.592,2.592,0,0,0,2.589,2.589H84.057l.188.188a1.415,1.415,0,0,1,.417,1.007v2.992H83.238a1.252,1.252,0,0,0,0,2.5h1.424Z" transform="translate(-1.301 -0.609)"/></g></g></g></svg>