<svg xmlns="http://www.w3.org/2000/svg" width="30" height="30" viewBox="0 0 30 30"><defs><style>.a,.c,.d{fill:#fff;}.b{fill:#424b54;stroke:#424b54;stroke-width:0.2px;}.c{stroke:#ff5c5c;stroke-width:1.3px;}.e,.g{stroke:none;}.f{fill:none;}.g{fill:#ff5c5c;}</style></defs><g transform="translate(-257 -496)"><rect class="a" width="30" height="30" transform="translate(257 496)"/><g transform="translate(258.957 502.522)"><path class="b" d="M.472,15H1.907c.168,1.447.981,1.987,2.438,1.987,1.073,0,.642-1.569,1.372-2.465.1-.1,1.845.859,1.89.478h9.276c.168,1.447.421,1.312,1.877,1.312,1.305,0,1.469-.1,2.044-1.312a4.766,4.766,0,0,0,1.778,0h3.026a.478.478,0,0,0,.478-.478V.978A.478.478,0,0,0,25.607.5H9.016a.478.478,0,0,0-.478.478V3.66H4.488a.479.479,0,0,0-.392.206L1.481,7.61.458,9.044l-.373.531A.478.478,0,0,0,0,9.847V14.5A.479.479,0,0,0,.472,15Zm4.274,1.434a1.912,1.912,0,1,1,1.913-1.912,1.936,1.936,0,0,1-1.913,1.936Zm14.975,0a1.912,1.912,0,1,1,1.913-1.912,1.936,1.936,0,0,1-1.913,1.936Zm5.4-14.975v8.568H12.138a.478.478,0,1,0,0,.956H25.119v3.06H22.571s-1.347.195-1.394,0c-.122-1.252-1.8.306-3.254.306s-.884-1.752-1.052-.306H9.494V3.632h3.452a.478.478,0,1,0,0-.956H9.494V1.456ZM4.737,4.617H8.562V14.04H7.606c-.011-.1-.309.065-.4-.217-.266-1.032-1.5-1.649-2.864-1.649-1.456,0-2.27.419-2.438,1.866H.95V10l.143-.206H6.927a.478.478,0,0,0,.478-.478V5.779A.478.478,0,0,0,6.927,5.3H4.249ZM3.58,6.266H6.449V8.848H1.758Zm0,0" transform="translate(0.001 -0.5)"/><g class="c" transform="translate(1.703 11.072)"><circle class="e" cx="2.981" cy="2.981" r="2.981"/><circle class="f" cx="2.981" cy="2.981" r="2.331"/></g><g class="d" transform="translate(16.608 11.072)"><path class="e" d="M 2.981081247329712 5.312161445617676 C 1.69572126865387 5.312161445617676 0.6500012278556824 4.266441345214844 0.6500012278556824 2.981081247329712 C 0.6500012278556824 1.69572126865387 1.69572126865387 0.6500012278556824 2.981081247329712 0.6500012278556824 C 4.266441345214844 0.6500012278556824 5.312161445617676 1.69572126865387 5.312161445617676 2.981081247329712 C 5.312161445617676 4.266441345214844 4.266441345214844 5.312161445617676 2.981081247329712 5.312161445617676 Z"/><path class="g" d="M 2.981081247329712 1.30000114440918 C 2.054131269454956 1.30000114440918 1.30000114440918 2.054131269454956 1.30000114440918 2.981081247329712 C 1.30000114440918 3.908031225204468 2.054131269454956 4.662161350250244 2.981081247329712 4.662161350250244 C 3.908031225204468 4.662161350250244 4.662161350250244 3.908031225204468 4.662161350250244 2.981081247329712 C 4.662161350250244 2.054131269454956 3.908031225204468 1.30000114440918 2.981081247329712 1.30000114440918 M 2.981081247329712 1.430511474609375e-06 C 4.627490997314453 1.430511474609375e-06 5.962161064147949 1.334671020507813 5.962161064147949 2.981081247329712 C 5.962161064147949 4.627490997314453 4.627490997314453 5.962161064147949 2.981081247329712 5.962161064147949 C 1.334671020507813 5.962161064147949 1.430511474609375e-06 4.627490997314453 1.430511474609375e-06 2.981081247329712 C 1.430511474609375e-06 1.334671020507813 1.334671020507813 1.430511474609375e-06 2.981081247329712 1.430511474609375e-06 Z"/></g></g></g></svg>