<svg xmlns="http://www.w3.org/2000/svg" width="30" height="30" viewBox="0 0 30 30"><defs><style>.a{fill:#fff;}.b{fill:#ff5c5c;}.c{fill:#424b54;}</style></defs><g transform="translate(-6362 -5521)"><rect class="a" width="30" height="30" transform="translate(6362 5521)"/><g transform="translate(6330.927 5525)"><g transform="translate(36.073)"><path class="b" d="M141.969,12.393h.152a4.395,4.395,0,0,0,3.358-1.453c1.834-2.067,1.529-5.611,1.5-5.949a4.859,4.859,0,0,0-2.31-4.32A5.3,5.3,0,0,0,142.1,0h-.081a5.3,5.3,0,0,0-2.562.653,4.862,4.862,0,0,0-2.339,4.339c-.033.338-.338,3.882,1.5,5.949A4.377,4.377,0,0,0,141.969,12.393Zm-3.577-7.282c0-.014,0-.029,0-.038.157-3.415,2.581-3.782,3.62-3.782h.057c1.286.029,3.472.552,3.62,3.782a.093.093,0,0,0,0,.038c0,.033.338,3.272-1.176,4.977a3.122,3.122,0,0,1-2.453,1.019h-.048a3.111,3.111,0,0,1-2.448-1.019C138.064,8.392,138.388,5.139,138.392,5.111Z" transform="translate(-132.271)"/><path class="c" d="M55.635,265.167v-.014c0-.038,0-.076,0-.119-.029-.943-.09-3.148-2.158-3.853l-.048-.014a13.744,13.744,0,0,1-3.953-1.8.643.643,0,0,0-.738,1.053,14.835,14.835,0,0,0,4.349,1.986c1.11.4,1.234,1.581,1.267,2.667a.956.956,0,0,0,0,.119,8.646,8.646,0,0,1-.1,1.472,17.528,17.528,0,0,1-8.4,1.953,17.629,17.629,0,0,1-8.4-1.958,8.183,8.183,0,0,1-.1-1.472c0-.038,0-.076,0-.119.033-1.086.157-2.272,1.267-2.667a14.972,14.972,0,0,0,4.349-1.986.643.643,0,1,0-.738-1.053,13.594,13.594,0,0,1-3.953,1.8l-.048.014c-2.067.71-2.129,2.915-2.158,3.853a.956.956,0,0,1,0,.119v.014a7.3,7.3,0,0,0,.243,2.158.611.611,0,0,0,.248.3,18.014,18.014,0,0,0,9.3,2.277,18.07,18.07,0,0,0,9.3-2.277.637.637,0,0,0,.248-.3A7.663,7.663,0,0,0,55.635,265.167Z" transform="translate(-36.073 -246.897)"/></g></g></g></svg>