<svg xmlns="http://www.w3.org/2000/svg" width="22.226" height="16.49" viewBox="0 0 22.226 16.49"><defs><style>.a{fill:#fff;}</style></defs><path class="a" d="M1.354,2.868h9.48a1.4,1.4,0,0,0,1.354-1.434h0A1.4,1.4,0,0,0,10.834,0H1.354A1.4,1.4,0,0,0,0,1.434H0A1.4,1.4,0,0,0,1.354,2.868Z" transform="translate(10.037 13.622)"/><path class="a" d="M1.389,2.868H20.837a1.413,1.413,0,0,0,1.389-1.434h0A1.413,1.413,0,0,0,20.837,0H1.389A1.413,1.413,0,0,0,0,1.434H0A1.413,1.413,0,0,0,1.389,2.868Z"/><path class="a" d="M1.389,2.868H20.837a1.413,1.413,0,0,0,1.389-1.434h0A1.413,1.413,0,0,0,20.837,0H1.389A1.413,1.413,0,0,0,0,1.434H0A1.413,1.413,0,0,0,1.389,2.868Z" transform="translate(0 7.17)"/></svg>